<svg xmlns="http://www.w3.org/2000/svg" viewBox="0 0 207.94 139.3"><defs><style>.cls-1{fill:#fff;}</style></defs><title>cuatro-cinco-blanco-blanc</title><g id="Capa_2" data-name="Capa 2"><g id="Capa_1-2" data-name="Capa 1"><path class="cls-1" d="M84,65.83c0,.08,0-.08,0,0Z"/><path class="cls-1" d="M105.5,46a1,1,0,0,0-.74-.3H99a.94.94,0,0,0-.68.3,1,1,0,0,0-.3.74L98.06,68q0,.93-.27.93T97,68L83.79,46a.83.83,0,0,0-.65-.33H77.79a1,1,0,0,0-1,1V67.53h0V77.81a1,1,0,0,0,0,.12v4.72a1,1,0,0,0,1,1h5.3a1,1,0,0,0,1-1V77.82h0V72.38h0l0-6.54-.08-4.73a2.79,2.79,0,0,1,0-.33c0-.14.06-.22.14-.22s.22.13.44.38Q87,64.86,91.82,72.32t6.95,10.79l.17.21a.88.88,0,0,0,.69.33h5.14a1.05,1.05,0,0,0,.74-.27.91.91,0,0,0,.3-.71v-36A1,1,0,0,0,105.5,46Z"/><path class="cls-1" d="M98.32,1.28a1.12,1.12,0,0,0-.49-.57,1.8,1.8,0,0,0-.3-.16.93.93,0,0,0-.38-.09H85.41A.92.92,0,0,0,85,.55a1.8,1.8,0,0,0-.3.16,1.12,1.12,0,0,0-.49.57l-10,36.61V38a.58.58,0,0,0,.65.65h5.56a1.16,1.16,0,0,0,.71-.25,1.18,1.18,0,0,0,.44-.57L84.29,27.7a1.66,1.66,0,0,1,.6-.82,1.52,1.52,0,0,1,.93-.33H96.74a1.52,1.52,0,0,1,.93.33,1.66,1.66,0,0,1,.6.82L101,37.84a1.18,1.18,0,0,0,.44.57,1.16,1.16,0,0,0,.71.25h5.56a.58.58,0,0,0,.65-.65v-.11Zm-2.48,19a1,1,0,0,1-.79.35H87.51a1,1,0,0,1-.79-.35.82.82,0,0,1-.14-.84l1-3.74,0-.08,2-7.3a1.37,1.37,0,0,1,.54-.76,1.63,1.63,0,0,1,.56-.28,1.42,1.42,0,0,1,.34,0h.35a1.42,1.42,0,0,1,.34,0,1.63,1.63,0,0,1,.56.28,1.37,1.37,0,0,1,.54.76l2,7.3,0,.08,1,3.74A.82.82,0,0,1,95.84,20.32Z"/><path class="cls-1" d="M9.59,36.53A19.58,19.58,0,0,1,0,19.59,19.26,19.26,0,0,1,2.59,9.81a19.54,19.54,0,0,1,7-7.14A18.43,18.43,0,0,1,19.23,0,18.64,18.64,0,0,1,27.1,1.72a19.42,19.42,0,0,1,6.35,4.63.74.74,0,0,1,.22.54.73.73,0,0,1-.27.6l-3.92,3.38a.83.83,0,0,1-.6.27.67.67,0,0,1-.54-.27,12.38,12.38,0,0,0-4.11-3,12.05,12.05,0,0,0-5-1.06A11.9,11.9,0,0,0,13,8.55a12.72,12.72,0,0,0-4.55,4.66A12.87,12.87,0,0,0,8.44,26,12.72,12.72,0,0,0,13,30.62a12.22,12.22,0,0,0,11,.76,12.54,12.54,0,0,0,4-2.7,1.54,1.54,0,0,1,1-.44,1,1,0,0,1,.76.27l1,.87,2.18,2a1.2,1.2,0,0,1,.54,1,.89.89,0,0,1-.27.65,19,19,0,0,1-14,6.1A18.57,18.57,0,0,1,9.59,36.53Z"/><path class="cls-1" d="M24.83,81.61a19.77,19.77,0,0,1-7-26.72,19.54,19.54,0,0,1,7-7.14,18.43,18.43,0,0,1,9.64-2.64,18.64,18.64,0,0,1,7.87,1.69,19.42,19.42,0,0,1,6.35,4.63.74.74,0,0,1,.22.54.73.73,0,0,1-.27.6L44.71,56a.83.83,0,0,1-.6.27.67.67,0,0,1-.54-.27,12.38,12.38,0,0,0-4.11-3,12.05,12.05,0,0,0-5-1.06,11.9,11.9,0,0,0-6.24,1.72,12.72,12.72,0,0,0-4.55,4.66,12.87,12.87,0,0,0,0,12.75,12.72,12.72,0,0,0,4.55,4.66,12.22,12.22,0,0,0,11,.76,12.54,12.54,0,0,0,4-2.7,1.54,1.54,0,0,1,1-.44,1,1,0,0,1,.76.27l1,.87,2.18,2a1.2,1.2,0,0,1,.54,1,.89.89,0,0,1-.27.65,19,19,0,0,1-14,6.1A18.57,18.57,0,0,1,24.83,81.61Z"/><path class="cls-1" d="M57.84,83.44a.94.94,0,0,1-.3-.68V46.58a1,1,0,0,1,.33-.74,1,1,0,0,1,.71-.3H64a.94.94,0,0,1,.68.3,1,1,0,0,1,.3.74V82.76a1,1,0,0,1-.27.68.91.91,0,0,1-.71.3H58.57A1,1,0,0,1,57.84,83.44Z"/><path class="cls-1" d="M123.6,81.61a19.77,19.77,0,0,1-7-26.72,19.54,19.54,0,0,1,7-7.14,18.43,18.43,0,0,1,9.64-2.64,18.64,18.64,0,0,1,7.87,1.69,19.42,19.42,0,0,1,6.35,4.63.74.74,0,0,1,.22.54.72.72,0,0,1-.27.6L143.49,56a.83.83,0,0,1-.6.27.67.67,0,0,1-.54-.27,12.38,12.38,0,0,0-4.11-3,12.05,12.05,0,0,0-5-1.06A11.9,11.9,0,0,0,127,53.64a12.72,12.72,0,0,0-4.55,4.66,12.87,12.87,0,0,0,0,12.75A12.72,12.72,0,0,0,127,75.7a12.22,12.22,0,0,0,11,.76,12.53,12.53,0,0,0,4-2.7,1.54,1.54,0,0,1,1-.44,1,1,0,0,1,.76.27l1,.87,2.18,2a1.2,1.2,0,0,1,.54,1,.89.89,0,0,1-.27.65,19,19,0,0,1-14,6.1A18.57,18.57,0,0,1,123.6,81.61Z"/><path class="cls-1" d="M155.53,72.87a20.13,20.13,0,0,1-.68-14.93,19.76,19.76,0,0,1,9.62-11A19.39,19.39,0,0,1,172,45h.11a1,1,0,0,1,.74.33,1.41,1.41,0,0,1,.35.82v4.74q0,1-1.14,1.14a12.37,12.37,0,0,0-4.69,1.39,11.42,11.42,0,0,0-3.76,3.13,12.48,12.48,0,0,0-2.94,8.12,12.64,12.64,0,0,0,1.14,5.26,12.16,12.16,0,0,0,3.27,4.33,12.52,12.52,0,0,0,13.29,1.8,11.49,11.49,0,0,0,4.25-3.32,12.14,12.14,0,0,0,2.21-3.84,12.84,12.84,0,0,0,.74-4.28,12.53,12.53,0,0,0-1.36-5.78,2.41,2.41,0,0,1-.27-1.09,1.6,1.6,0,0,1,.65-1.25q.44-.27,1.69-1.14l1.58-1.09a1.56,1.56,0,0,1,.82-.27,1.4,1.4,0,0,1,1.31.82,19.55,19.55,0,0,1,2.61,9.86,19.9,19.9,0,0,1-1.14,6.67,19,19,0,0,1-3.38,5.91,17.54,17.54,0,0,1-6.67,5.26,19.93,19.93,0,0,1-8.36,1.83,19.27,19.27,0,0,1-6.65-1.17,17.52,17.52,0,0,1-5.72-3.41A19.44,19.44,0,0,1,155.53,72.87Z"/><path class="cls-1" d="M163.89,37.45l-6.32-14.11a2.27,2.27,0,0,1-.05-.54.64.64,0,0,1,.33-.54,12.08,12.08,0,0,0,3.51-4.2,11.58,11.58,0,0,0,1.28-5.34A11.67,11.67,0,0,0,161,6.62a12.33,12.33,0,0,0-4.49-4.41A12.21,12.21,0,0,0,150.27.57H110.36a1,1,0,0,0-1,1v5a1,1,0,0,0,1,1h10.05a1.18,1.18,0,0,1,.29.79V37.84a.63.63,0,0,0,.71.71h6.48a.72.72,0,0,0,.49-.19.65.65,0,0,0,.22-.52V8.42a1.18,1.18,0,0,1,.32-.79h9.62l7.16,0h4.58a5,5,0,0,1,3.68,1.47,4.85,4.85,0,0,1,1.5,3.6,4.79,4.79,0,0,1-1.5,3.54,5,5,0,0,1-3.68,1.47H139a1,1,0,0,0-1,1v19a.91.91,0,0,0,.3.71,1,1,0,0,0,.74.27h4.25a1.05,1.05,0,0,0,.74-.27.91.91,0,0,0,.3-.71v-12a.81.81,0,0,1,.35-.79,2.16,2.16,0,0,1,1-.19h4.63a3.5,3.5,0,0,1,1.09.11.85.85,0,0,1,.44.44l5.67,12.75a1,1,0,0,0,.52.54,2.76,2.76,0,0,0,.9.11h4.47q.76,0,.76-.6A1.45,1.45,0,0,0,163.89,37.45Z"/><path class="cls-1" d="M68.68.76a1,1,0,0,0-.74-.3h-5a1,1,0,0,0-.74.3.94.94,0,0,0-.3.68V25.63a5.59,5.59,0,0,1-1,3.24,7.23,7.23,0,0,1-2.78,2.37,8.41,8.41,0,0,1-3.81.87,6.11,6.11,0,0,1-4.52-1.88,6.3,6.3,0,0,1-1.85-4.58V3.1h0V1.44a1,1,0,0,0-.27-.71,1,1,0,0,0-.71-.27H41.79a1,1,0,0,0-.68.27.91.91,0,0,0-.3.71V3.1h0V26.4h0a13,13,0,0,0,1.8,6,13.5,13.5,0,0,0,4.9,4.9,13.1,13.1,0,0,0,6.73,1.8,15.82,15.82,0,0,0,7.6-1.8,13.42,13.42,0,0,0,5.23-4.88A12.76,12.76,0,0,0,69,25.63V1.44A.94.94,0,0,0,68.68.76Z"/><path class="cls-1" d="M207.07,25.73a18.44,18.44,0,0,0,.86-5c0-.42,0-.84,0-1.26,0-.13,0-.27,0-.4V19a19.5,19.5,0,0,0-2.6-9,1.87,1.87,0,0,0-.2-.3,20.66,20.66,0,0,0-2.2-3,19.44,19.44,0,0,0-7-5.08A17.51,17.51,0,0,0,189.49,0a19.27,19.27,0,0,0-6.7.82A19.94,19.94,0,0,0,175.33,5a17.54,17.54,0,0,0-4.85,7A19,19,0,0,0,169,18.65a19.91,19.91,0,0,0,.85,6.72l.14.44a21,21,0,0,0,.87,2.28A19.44,19.44,0,0,0,176,35a17.51,17.51,0,0,0,5.72,3.41,19.27,19.27,0,0,0,6.65,1.17,19.94,19.94,0,0,0,8.36-1.83,17.54,17.54,0,0,0,6.67-5.26l.38-.48.15-.18a18.93,18.93,0,0,0,2.85-5.25c.09-.24.17-.49.24-.74l0-.07Zm-26.65,3.76-.45-.4a2.55,2.55,0,0,0-.42-.59,12.53,12.53,0,0,1-3-5.13,12.76,12.76,0,0,1-.55-3.55,12.48,12.48,0,0,1,2.94-8,11.42,11.42,0,0,1,3.76-3.13,12.37,12.37,0,0,1,4.69-1.39,1.9,1.9,0,0,0,.42-.09,12.75,12.75,0,0,1,5.53,1,12.17,12.17,0,0,1,4.39,3.19,12.88,12.88,0,0,1,1.71,2.48c0,.08.06.15.1.23a12.53,12.53,0,0,1,1.36,5.78,12.74,12.74,0,0,1-.1,1.6,13.42,13.42,0,0,1-.89,3.23,11.39,11.39,0,0,1-1,2A12.63,12.63,0,0,1,198,28l-.34.41-.39.4a12.37,12.37,0,0,1-4.08,2.7,1.93,1.93,0,0,0-.35.19,12.5,12.5,0,0,1-12.39-2.17Z"/><path class="cls-1" d="M55.5,122.8c-5.71.52-8.35-2.89-8.76-7.41-.73-8,5.35-17.74,12.75-18.41,2.6-.24,4.8.82,5,3.36.1,1.07-.14,3.54-1.38,3.66a.68.68,0,0,1-.8-.67c-.06-.62.48-1.64.42-2.32-.12-1.3-1.29-1.65-2.42-1.55a4.58,4.58,0,0,0-1.5.42c-4.51,2.4-6.89,10.08-6.42,15.28.29,3.22,1.49,5.11,3.87,5,4.29-.39,9.07-9.31,10.58-12.8a.5.5,0,0,1,.48-.33,1.1,1.1,0,0,1,1.09.76l0,.23c-2.1,5.09-6.59,14.1-12.68,14.76Z"/><path class="cls-1" d="M65.54,115.35a16.85,16.85,0,0,1,2.15-9.59c.21-.82,1.36-1.32,2.55-1.43,1.47-.13,3,.29,3.16,1.59l-.06.58c-1.14,1.24-3,6.88-2.67,10.15.16,1.81.73,2.44,2.1,2.38,4.24-.38,6.84-8.76,6.34-14.3-.26-2.88-1.36-5-3.52-4.87a3.88,3.88,0,0,0-3.18,2.05A3.1,3.1,0,0,1,70,103.27c-1.36.12-2.66-.39-2.76-1.57s1.16-3,2.75-4.24a8.44,8.44,0,0,1,4.55-1.95c4.94-.16,7.27,2.88,7.7,7.62.67,7.4-3.94,17.56-10.44,18.15C67.58,121.6,65.85,118.79,65.54,115.35Z"/><path class="cls-1" d="M82.4,131.08C81.12,116.9,89.69,88.9,92.79,82.86a5.43,5.43,0,0,1,3.81-3.19A1.12,1.12,0,0,1,98,80.74a3.63,3.63,0,0,1-.22,1.39c-.31.94-5.65,21.87-8.2,31.5l.37.31a11.78,11.78,0,0,0,1.48,0c3.73-.34,8.73-3,11.59-9.82a.7.7,0,0,1,.54-.33c.45,0,1,.25,1.09.7l-.08.41c-2.79,7.6-7.92,10.74-12.55,11.16l-.56.05a21.91,21.91,0,0,1,1.81,7.47c.65,7.18-.95,15.35-5.13,15.73C85,139.56,82.89,136.56,82.4,131.08Zm8.51-7.95a19.46,19.46,0,0,0-1.79-7.19.2.2,0,0,1-.17,0c-1,4.08-3,13.94-2.58,18.75.14,1.52.51,2.52,1.27,2.68l.34,0C90.35,137.14,91.49,129.58,90.91,123.14Z"/><path class="cls-1" d="M99.69,129.52C98.41,115.34,107,87.33,110.08,81.3a5.43,5.43,0,0,1,3.81-3.19,1.12,1.12,0,0,1,1.35,1.07,3.63,3.63,0,0,1-.22,1.39c-.31.94-5.66,21.87-8.2,31.5l.37.31a12,12,0,0,0,1.48,0c3.73-.34,8.73-3,11.59-9.82a.7.7,0,0,1,.54-.33c.45,0,1,.25,1.09.7l-.08.41c-2.79,7.6-7.92,10.74-12.55,11.16l-.56.05a21.91,21.91,0,0,1,1.81,7.47c.65,7.18-.95,15.35-5.13,15.73C102.33,138,100.18,135,99.69,129.52Zm8.51-7.95a19.45,19.45,0,0,0-1.79-7.19.21.21,0,0,1-.17,0c-1,4.08-3,13.95-2.58,18.75.14,1.52.51,2.52,1.27,2.68l.34,0C107.64,135.58,108.78,128,108.2,121.57Z"/><path class="cls-1" d="M119.5,108.64c-.73-8.08,5.3-17.62,11.46-18.18a4.44,4.44,0,0,1,4.93,4.11c.46,5.09-6.84,10.65-10.68,11.67v.06a13.71,13.71,0,0,0,0,2.11c.59,4,1.79,5.36,3.89,5.17,4.41-.4,9.2-9.72,10.52-12.8a.54.54,0,0,1,.48-.33c.51,0,1.12.35,1.15.75l0,.23c-2.49,5.86-6.53,14.15-13.64,14.79C123.24,116.51,120,114.24,119.5,108.64ZM134,95.37a1.63,1.63,0,0,0-1.8-1.66c-1.07.1-2.53,1-4,3.21a23.8,23.8,0,0,0-2.73,7l-.12.52C128,103.38,134.34,98.82,134,95.37Z"/><path class="cls-1" d="M138.89,106.89c-.73-8.08,5.3-17.63,11.46-18.18a4.44,4.44,0,0,1,4.93,4.11c.46,5.09-6.84,10.64-10.68,11.67v.06a13.71,13.71,0,0,0,0,2.11c.59,4,1.79,5.36,3.89,5.17,4.41-.4,9.2-9.72,10.52-12.8a.54.54,0,0,1,.48-.33c.51,0,1.12.35,1.15.75l0,.23c-2.49,5.87-6.53,14.15-13.64,14.79C142.62,114.76,139.39,112.49,138.89,106.89Zm14.52-13.27a1.62,1.62,0,0,0-1.8-1.66c-1.07.1-2.53,1-4,3.21a23.84,23.84,0,0,0-2.73,7l-.12.52C147.35,101.63,153.72,97.06,153.41,93.62Z"/></g></g></svg>